<svg width="167" height="35" viewBox="0 0 167 35" xmlns="http://www.w3.org/2000/svg"><title>Slice 1</title><g fill="none" fill-rule="evenodd"><path d="M162.453 16.292v13.69h-2.074V6.77l2.075-1.266-.001 8.868h4.5v1.92h-4.5M147.464 27.875c.438.178 1.008.332 1.707.462.698.129 1.367.193 2.006.193 1.2 0 2.146-.263 2.843-.79.7-.526 1.048-1.177 1.048-1.951 0-.536-.105-.978-.314-1.326a2.797 2.797 0 0 0-.838-.879 4.772 4.772 0 0 0-1.182-.58c-.438-.15-.89-.303-1.347-.462a19.62 19.62 0 0 1-1.482-.537 5.06 5.06 0 0 1-1.303-.76 3.607 3.607 0 0 1-.915-1.117c-.228-.437-.342-.983-.342-1.64 0-1.21.442-2.194 1.332-2.95.887-.753 2.26-1.132 4.118-1.132.777 0 1.53.07 2.259.209.728.14 1.293.289 1.693.447-.1.576-.241 1.143-.42 1.699-.418-.14-.955-.278-1.602-.417a9.593 9.593 0 0 0-2.02-.209c-1.218 0-2.082.214-2.59.64-.51.429-.766.989-.766 1.685 0 .377.085.7.257.967.168.27.399.497.688.686.288.19.618.353.987.491.371.14.764.268 1.183.388a38.01 38.01 0 0 1 1.632.581 6.105 6.105 0 0 1 1.499.82c.448.337.815.765 1.106 1.28.29.518.433 1.163.433 1.937 0 .716-.144 1.367-.433 1.952a4.283 4.283 0 0 1-1.214 1.49c-.518.407-1.136.72-1.854.939a8.126 8.126 0 0 1-2.366.327c-.958 0-1.812-.06-2.561-.18-.748-.118-1.352-.277-1.81-.476a8.91 8.91 0 0 1 .568-1.787M141.97 22.595c-.338-.039-.664-.108-1.174-.158-.51-.05-.995-.075-1.452-.075-1.496 0-2.656.28-3.473.835-.818.556-1.13 1.381-1.13 2.413 0 .656.026 1.152.275 1.55.252.398.575.7.974.908.4.208.839.348 1.316.417.48.07.96.105 1.438.105 1.104 0 2.158-.123 3.225-.406.006-1.13.001-2.26.001-3.391v-2.198zm0-2.63c0-1.31-.212-2.315-.831-2.922-.618-.605-1.537-.908-2.752-.908a13.419 13.419 0 0 0-3.953.567c-.1-.18-.185-.438-.255-.775a4.775 4.775 0 0 1-.106-.954c.52-.16 1.157-.293 1.917-.403a16.564 16.564 0 0 1 2.335-.164c1.937 0 3.374.424 4.313 1.267.938.844 1.406 2.17 1.406 3.978v10.042c-.7.139-1.547.277-2.544.417-.999.138-1.947.208-2.846.208-1.855 0-3.318-.367-4.386-1.102-1.067-.735-1.6-1.926-1.6-3.577 0-.794.153-1.504.462-2.13a4.493 4.493 0 0 1 1.29-1.578c.547-.427 1.205-.75 1.975-.969a9.22 9.22 0 0 1 2.53-.327c.719 0 1.337.024 1.856.074.519.05.851.083 1.19.123v-.867zM130.26 28.053c.1.2.194.467.282.805.09.338.156.616.196.835-.5.178-1.068.327-1.707.446-.637.12-1.346.18-2.127.18-2.495 0-4.39-.681-5.686-2.043-1.3-1.36-1.948-3.331-1.948-5.914 0-1.132.159-2.18.481-3.143a7.302 7.302 0 0 1 1.406-2.517c.618-.716 1.393-1.277 2.319-1.684.929-.407 2.003-.612 3.22-.612.76 0 1.482.056 2.17.164.69.11 1.233.234 1.632.374 0 .258-.034.556-.104.893a5.221 5.221 0 0 1-.225.805c-.4-.14-.904-.258-1.513-.358a12.17 12.17 0 0 0-1.96-.149c-.898 0-1.682.154-2.35.462-.67.308-1.228.74-1.676 1.296a5.514 5.514 0 0 0-1.004 1.967c-.22.755-.329 1.59-.329 2.502 0 2.146.514 3.72 1.542 4.723 1.029 1.004 2.42 1.505 4.176 1.505a9.627 9.627 0 0 0 3.205-.537" fill="#FF7C00"/><path d="M114.643 21.021c0-.614-.08-1.22-.24-1.817a4.491 4.491 0 0 0-.748-1.564 3.82 3.82 0 0 0-1.318-1.087c-.539-.278-1.188-.418-1.946-.418-1.397 0-2.485.427-3.264 1.282-.778.853-1.248 2.055-1.406 3.604h8.922zm-8.983 1.64c0 2.026.47 3.516 1.407 4.469.938.954 2.346 1.43 4.222 1.43.759 0 1.462-.064 2.111-.194a13.577 13.577 0 0 0 1.901-.521c.1.22.18.487.24.805.06.318.1.606.119.863-.579.258-1.257.457-2.035.597-.779.138-1.627.208-2.545.208-1.317 0-2.45-.194-3.398-.58-.95-.389-1.728-.93-2.336-1.625-.61-.695-1.058-1.524-1.348-2.488-.289-.963-.433-2.021-.433-3.173 0-1.113.134-2.156.404-3.13.27-.971.678-1.826 1.227-2.561a5.689 5.689 0 0 1 2.112-1.729c.857-.417 1.885-.626 3.083-.626.998 0 1.886.17 2.664.507.78.339 1.433.81 1.962 1.415.528.606.929 1.331 1.198 2.176.269.844.404 1.763.404 2.756a19.562 19.562 0 0 1-.06 1.4H105.66zM98.376 22.179c0-4.306-1.487-5.952-4.559-5.952-2.73 0-5.094 1.989-5.094 5.853v7.903H86.65V4.95h2.073v12.105c1.354-1.754 3.364-2.749 5.816-2.749 3.684 0 5.902 2.186 5.902 6.89v8.787h-2.065v-7.804M79.136 16.292v13.69H77.06V6.77l2.076-1.266-.001 8.868h4.5v1.92h-4.5M65.276 14.365h2.122v2.462c1.55-1.985 3.123-2.825 4.88-2.825.9 0 1.516.181 2.19.625l-.993 1.862c-.628-.354-1.265-.523-1.859-.523-2.236 0-4.218 2.259-4.218 5.718v8.299h-2.122V14.365M58.817 14.372h2.117V28.36c-2.025 1.348-4.188 1.96-6.543 1.96-3.608 0-7.169-1.258-7.169-7.272v-8.675h2.117v7.94c0 5.027 2.423 6.047 5.154 6.047 1.219 0 2.79-.363 4.324-1.189V14.372" fill="#4A4A4A"/><path d="M35.467 19.687l-13.11-7.793v5.104l13.11 7.78v10.169l-16.036-9.534V15.261l1.639.973v-5.106l-1.639-.974V.001l16.036 9.55v10.136M6.415 29.229l3.207-1.907v1.907l6.415-3.813V.001L9.622 3.814v22.238l-3.207 1.906V5.72L.001 9.532v25.415l6.414-3.812v-1.906" fill="#FF7C00"/></g></svg>