<svg width="167" height="35" xmlns="http://www.w3.org/2000/svg">
 <!-- Created with Method Draw - http://github.com/duopixel/Method-Draw/ -->
 <g>
  <title>background</title>
  <rect fill="#fff" id="canvas_background" height="37" width="169" y="-1" x="-1"/>
 </g>
 <g>
  <title>Layer 1</title>
  <path transform="rotate(0.9694764018058777 75.69499969482631,177.4174957275395) " id="svg_6" d="m61.695001,237.917497l5.25,-120.999997l17.500001,0l5.249998,120.999997l-27.999999,0z" stroke-opacity="null" stroke="#000" fill="#ff7c00"/>
  <rect stroke="#000" id="svg_8" height="21" width="55" y="165.5" x="134" stroke-opacity="null" stroke-width="1.5" fill="#4a4a4a"/>
  <rect id="svg_9" height="21" width="55" y="116.5" x="134" stroke-opacity="null" stroke-width="1.5" stroke="#000" fill="#4a4a4a"/>
  <rect id="svg_10" height="21" width="55" y="217.5" x="134" stroke-opacity="null" stroke-width="1.5" stroke="#000" fill="#4a4a4a"/>
  <text xml:space="preserve" text-anchor="start" font-family="Helvetica, Arial, sans-serif" font-size="90" id="svg_12" y="219.666666" x="206.5" stroke-opacity="null" stroke-width="0" stroke="#000" fill="#4a4a4a">uyanbil</text>
  <path transform="rotate(-179.9828338623047 109.6949996948242,177.41749572753903) " id="svg_14" d="m95.695001,237.917497l5.25,-120.999997l17.500001,0l5.249998,120.999997l-27.999999,0z" stroke-opacity="null" stroke="#000" fill="#ff7c00"/>
  <path stroke="#000" id="svg_15" d="m3.973137,9.220836c-0.136151,0 -0.206132,-0.144514 -0.206132,-0.317813c0,-0.144481 0.034985,-0.284755 0.136151,-0.284755c0.069981,0 0.175329,0.140274 0.210315,0.284755c0.069981,0.210361 0,0.317813 -0.140333,0.317813zm23.27352,8.245805c0.31149,0 0.381461,0.037063 0.206132,0.284722c-0.101165,0.173299 -0.31148,0.317779 -0.412645,0.317779c-0.105337,0 -0.210315,-0.144481 -0.210315,-0.317779c0,-0.17755 0.140344,-0.284722 0.416828,-0.284722zm-21.746924,-10.086477c-0.31148,-0.07012 -0.346476,-0.425197 0,-0.532403c0.175319,-0.033013 0.276494,0.070109 0.276494,0.284755c0,0.177527 -0.101176,0.280694 -0.276494,0.247648zm-3.882665,11.217163c0.416828,-0.103178 0.416828,-0.177337 0.276494,-0.420957c-0.104977,-0.177337 -0.139963,-0.391961 -0.069981,-0.462092c0.034985,-0.107396 0.210315,0 0.31148,0.210384c0.140333,0.284755 0.2453,0.322042 0.521794,0.144481c0.171528,-0.107194 0.31148,-0.177505 0.31148,-0.070109c0,0.070109 0.105348,0 0.241498,-0.144481c0.210325,-0.210384 0.24531,-0.672666 0.034996,-0.920336c-0.171147,-0.210384 -1.039787,-0.140252 -1.281286,0.107194c-0.139963,0.177561 -0.24531,0.140476 -0.381461,-0.177304c-0.210315,-0.528387 -0.210315,-0.602568 0.276484,-0.635581c0.416828,0 0.416828,0 0.069981,-0.214624c-0.174948,-0.103178 -0.346465,-0.317779 -0.346465,-0.458054c0,-0.355055 0.482997,-0.565438 0.693311,-0.317768c0.069981,0.103156 0.206143,0.210384 0.346476,0.210384c0.276494,0 1.596567,-1.200862 1.596567,-1.448532c0,-0.107384 0.136532,-0.177494 0.276494,-0.107384c0.171517,0.037275 0.483008,-0.070109 0.79867,-0.24767c0.44763,-0.284733 0.44763,-0.317779 0.206132,-0.779871c-0.171147,-0.317779 -0.381461,-0.425197 -0.86827,-0.425197c-0.552978,0 -0.693311,0.070143 -0.864458,0.49534c-0.070362,0.284722 -0.280666,0.495116 -0.416828,0.495116c-0.241498,0 -0.31148,-0.317589 -0.069981,-0.495116c0.104967,-0.070143 0.174948,-0.317779 0.174948,-0.565449c0,-0.387933 -0.069981,-0.458054 -0.521794,-0.354864c-0.451813,0.070109 -0.451813,0.037063 -0.346476,-0.495362c0.069981,-0.317768 0.171147,-0.602501 0.241509,-0.635547c0.069981,-0.037063 0.139952,-0.354864 0.139952,-0.672644c0,-0.635614 0.206513,-0.742809 0.588355,-0.284755c0.174937,0.247659 0.280296,0.284755 0.346465,0.070109c0.069981,-0.140252 0.315281,-0.173299 0.697123,-0.103189c0.517993,0.140274 0.552978,0.103189 0.482997,-0.317779c-0.034985,-0.247636 -0.070352,-0.532392 -0.105337,-0.602501c0,-0.107228 -0.171147,-0.24767 -0.37766,-0.354898c-0.416828,-0.177494 -0.521794,-0.602501 -0.140333,-0.602501c0.105348,0 0.206503,-0.070143 0.206503,-0.210607c0,-0.107228 0.210325,-0.177337 0.486809,-0.144503c0.381842,0.037275 0.587974,-0.103133 1.109768,-0.845909c0.381842,-0.532425 0.658326,-0.817158 0.693322,-0.672677c0.034985,0.177337 0.210315,0.280493 0.381832,0.280493c0.276494,0 0.31149,-0.103156 0.210325,-0.565248c-0.035367,-0.317802 -0.210325,-0.70569 -0.315662,-0.883251c-0.31149,-0.392117 -0.31149,-0.850171 0,-0.709952c0.2453,0.140476 1.008593,-0.247446 1.008593,-0.495105c0,-0.107396 0.101546,-0.177527 0.241498,-0.177527c0.140344,0 0.206513,0.214612 0.206513,0.495329c0,0.354864 0.069981,0.495139 0.24531,0.391949c0.136151,-0.07417 0.241509,-0.284755 0.241509,-0.424996c0,-0.42522 1.109758,-1.168006 1.386242,-0.957432c0.105358,0.070165 0.210315,0 0.245702,-0.247636c0.101155,-0.495329 0.727916,-0.883251 1.004399,-0.635581c0.140344,0.103156 0.276505,0.070143 0.311872,-0.037063c0.069971,-0.140465 0.346465,-0.24767 0.657945,-0.280739c0.31148,-0.037063 0.728307,-0.177527 0.903637,-0.322008c0.657945,-0.458054 1.316282,-0.425007 1.592765,0.070355c0.175329,0.354842 0.2453,0.354842 0.2453,0.107172c0,-0.317802 0.136542,-0.354864 0.969816,-0.247636c1.320083,0.140465 1.526596,0.140465 2.013405,-0.037096c0.31148,-0.103178 0.416817,-0.070132 0.416817,0.21459c0,0.177561 0.101176,0.317813 0.241509,0.317813c0.104967,0 0.206132,-0.103189 0.206132,-0.210585c0,-0.284722 0.557171,-0.424996 1.04397,-0.284722c0.37766,0.140465 0.412645,0.177494 0.31148,1.130876c-0.034985,0.569488 0,0.95741 0.06618,0.95741c0.069971,0 0.140333,-0.24767 0.140333,-0.602534c0,-0.598496 0.381461,-0.845965 0.521794,-0.354876c0.034996,0.177348 0.136151,0.107205 0.206132,-0.173287c0.17534,-0.742999 0.557171,-0.355088 0.451813,0.458054c-0.104956,0.672644 -0.104956,0.672644 0.206524,0.424974c0.175319,-0.107205 0.311469,-0.387889 0.311469,-0.565248c0,-0.177538 0.105358,-0.388112 0.245321,-0.462294c0.276473,-0.140218 0.588345,0.391983 0.486798,0.780062c-0.034985,0.177371 -0.034985,0.317802 0.066169,0.317802c0.070362,0 0.140344,-0.103156 0.140344,-0.177527c0,-0.103178 0.171517,-0.140274 0.381832,-0.070109c0.451442,0.107205 0.517612,0.391927 0.136161,0.565226c-0.101165,0.074371 -0.206513,0.24767 -0.206513,0.392173c0,0.24767 0.070352,0.24767 0.451813,0c0.62296,-0.424996 0.899443,-0.392173 1.004802,0.070109c0.069971,0.24767 0.206503,0.355066 0.346465,0.24767c0.140333,-0.037085 0.451813,0.107396 0.693322,0.354864c0.210315,0.210574 0.521794,0.387922 0.662127,0.387922c0.206513,0 0.206513,0.17755 0.136151,0.672856c-0.069971,0.532425 -0.069971,0.602534 0.140344,0.387944c0.276484,-0.350859 0.381461,-0.317835 0.483008,0.177304c0.034985,0.24767 0.280285,0.425197 0.55678,0.532403c0.31148,0.070355 0.483008,0.247659 0.483008,0.458244c0,0.214612 0.104956,0.462092 0.210315,0.602557c0.276494,0.247636 0.206132,0.990423 -0.105358,1.238082c-0.104956,0.074181 -0.241488,0.037096 -0.276484,-0.070109c-0.069971,-0.107418 -0.31148,-0.107418 -0.763303,0c-0.728307,0.247446 -0.864458,0.317779 -0.693311,0.639597c0.105348,0.210384 1.316652,0.140274 1.978409,-0.107396c0.206513,-0.107217 0.276494,0 0.276494,0.49534c0,0.354842 -0.069981,0.635581 -0.174948,0.635581c-0.070362,0 -0.136532,0.107194 -0.136532,0.284722c0,0.425175 0.171528,0.387889 0.623341,-0.107228c0.241117,-0.284722 0.38145,-0.355055 0.552978,-0.177494c0.174948,0.177494 0.210315,0.177494 0.210315,-0.107228c0,-0.173511 -0.070362,-0.317779 -0.175319,-0.317779c-0.06618,0 -0.136542,-0.140465 -0.136542,-0.280739c0,-0.177505 0.101546,-0.317779 0.241498,-0.317779c0.105348,0 0.24531,0.070109 0.24531,0.173299c0,0.10744 0.136532,0.247659 0.311861,0.284755c0.241128,0.107418 0.31148,0.24767 0.276484,0.672666c-0.070352,0.813086 0.069992,1.060778 0.587974,0.920526c0.24531,-0.070355 0.38145,0 0.276494,0.140252c-0.031184,0.070109 0,0.24767 0.069981,0.321795c0.280666,0.210596 0.175319,0.705746 -0.136161,0.705746c-0.381832,0 -0.486809,0.177494 -0.280285,0.495307c0.139952,0.177527 0.2453,0.210384 0.38145,0.070132c0.315662,-0.354864 0.381842,-0.070132 0.416828,1.345533c0,0.709706 0.069981,1.275178 0.139963,1.275178c0.171517,0 0.105348,0.780062 -0.139963,1.097841c-0.136532,0.177337 -0.136532,0.350624 -0.034985,0.495105c0.2453,0.317813 0,1.238149 -0.311872,1.238149c-0.276473,0 -0.798278,0.672644 -0.798278,0.990445c0,0.388135 -0.44763,0 -0.552978,-0.425007c-0.104967,-0.387911 -0.104967,-0.387911 -0.175329,-0.107396c-0.066169,0.322019 0.311861,1.312464 0.627153,1.593147c0.206503,0.214646 -0.175329,0.569488 -0.451824,0.425007c-0.140344,-0.070109 -0.206513,-0.280493 -0.206513,-0.495116c0,-0.602501 -0.86827,-2.121355 -1.526596,-2.690821c-0.350267,-0.280739 -0.661757,-0.598518 -0.661757,-0.705713c0,-0.214624 -1.110139,-0.883251 -1.733099,-1.097863c-0.346857,-0.107396 -0.451824,-0.07012 -0.451824,0.214612c0,0.210384 -0.066169,0.280493 -0.206513,0.210384c-0.31148,-0.140274 -0.451813,0.177561 -0.175319,0.49534c0.381832,0.387911 0.315662,0.850171 -0.101165,0.672644c-0.280296,-0.107205 -0.315292,-0.070143 -0.210315,0.532414c0.034985,0.350826 0.105348,0.813086 0.105348,1.023469c0,0.214624 0.069971,0.354898 0.139952,0.354898c0.101557,0 0.136532,-0.070143 0.06618,-0.177337c-0.034985,-0.107418 0.035377,-0.210585 0.175319,-0.210585c0.105358,0 0.206513,0.140442 0.206513,0.280694c0,0.144503 -0.136521,0.284722 -0.381832,0.247692c-0.206132,0 -0.381461,-0.103189 -0.381461,-0.173321c0,-0.322042 -0.934821,-2.513506 -1.211304,-2.835324c-0.31149,-0.350859 -0.104977,-0.458054 -2.566394,1.205058c-0.38145,0.24767 -0.798278,0.780062 -1.008593,1.168006c-0.171528,0.387889 -0.448012,0.780062 -0.587974,0.850171c-0.140333,0.070143 -0.658326,0.635581 -1.11015,1.238115c-1.943424,2.653534 -1.627761,2.971336 -1.4916,8.390308c0.588345,4.106273 0.588345,4.106273 0.588345,4.106273c-1.386634,0 -1.386634,0 -1.386634,0c-1.144754,0 -1.144754,0 -1.144754,0c0.104967,-3.788706 0.104967,-3.788706 0.104967,-3.788706c0.069971,-0.317567 0.105348,-0.957376 0.140344,-1.312274c0.034985,-0.210574 -0.973618,-1.13091 -0.938622,-1.341271c0,-0.177527 1.043589,0.317813 1.043589,0.140252c0.171517,-2.583425 0,-4.638698 -0.451824,-5.732512c-0.104967,-0.672677 -0.973607,-2.835111 -1.109758,-2.835111c-0.034996,0 -0.280296,-0.210574 -0.521794,-0.458244c-0.416838,-0.46207 -0.587974,-0.495139 -2.91324,-0.635581c-2.496402,-0.144291 -2.496402,-0.144291 -2.496402,-0.144291c-0.591776,0.495139 -0.591776,0.495139 -0.591776,0.495139c-0.346465,0.322008 -0.693311,0.532403 -0.794487,0.532403c-0.210315,0 -1.078955,0.742965 -1.456615,1.167939c-0.034985,0 -0.069971,-0.037029 -0.069971,-0.070109c-0.034996,0 -0.034996,0 -0.034996,-0.037085c-0.034985,-0.103156 -0.070352,-0.210574 -0.140333,-0.317779c0.210315,-0.177527 0.381832,-0.284923 0.451813,-0.247636c0.104967,0.070109 0.206513,0 0.206513,-0.177561c0,-0.177337 -0.206513,-0.247659 -0.759491,-0.177337c-0.662138,0.107228 -0.833655,0.144291 -0.938622,0.565259c-0.171528,0.214612 -0.206513,0.532414 -0.104967,0.780084c-0.035377,0.317779 -0.035377,0.532392 0,0.532392c0.034985,0 0.069971,-0.070109 0.174948,-0.144481c0,0.037096 0.034985,0.074371 0.070352,0.107396c-0.346846,0.107205 -0.522175,0.425007 -0.486809,0.742786c-0.175319,0.144481 -0.346846,0.214612 -0.55715,0.321818c0,0 0,-0.037063 -0.031195,-0.037063c0.136532,-0.317779 0.206513,-0.672677 0.241498,-1.205069c0.070362,-0.598518 0.034985,-0.990445 -0.069971,-0.990445c-0.069981,0 -0.140333,0.144481 -0.140333,0.354831c0.034975,0.177561 -0.031195,0.354898 -0.171157,0.387944c-0.105348,0.037063 -0.175319,-0.033047 -0.175319,-0.210384c0,-0.425197 -0.136161,-0.425197 -0.448022,-0.037275c-0.139952,0.144481 -0.416446,0.317802 -0.657945,0.392173c-0.315662,0.103156 -0.416828,0.033013 -0.557161,-0.354898c-0.104967,-0.317779 -0.174948,-0.672856 -0.104967,-0.813108c0.034985,-0.177527 0.034985,-0.321818 -0.101165,-0.321818c-0.381842,0 -0.105348,-0.565472 0.346465,-0.672867zm2.983211,-8.138409c-0.210315,-0.037063 -0.381842,-0.140252 -0.451813,-0.284733c-0.034996,-0.210574 -0.069981,-0.210574 -0.069981,0c0,0.144481 -0.140333,0.24767 -0.276494,0.284733c-0.2453,0 -0.2453,0.037085 0.034996,0.177561c0.171136,0.070109 0.346465,0.177304 0.38145,0.177304c0.031184,0 0.206513,-0.107194 0.381842,-0.177304c0.31148,-0.177561 0.31148,-0.177561 0,-0.177561zm27.50265,5.699465c0.06618,0.070143 0.136161,-0.037275 0.136161,-0.214612c0,-0.140442 -0.069981,-0.280717 -0.136161,-0.280717c-0.105337,0 -0.175319,0.070132 -0.175319,0.173299c0,0.107418 0.069981,0.251899 0.175319,0.32203zm-0.2453,0.317802c-0.034985,-0.107418 -0.206513,-0.247659 -0.346846,-0.247659c-0.101165,0 -0.171147,0.140241 -0.101165,0.247659c0.031184,0.107205 0.171517,0.177348 0.31148,0.177348c0.136532,0 0.171517,-0.070143 0.136532,-0.177348zm-0.31148,1.592957c0.104967,0 0.2453,-0.037063 0.2453,-0.070109c0,-0.074371 -0.140333,-0.144481 -0.2453,-0.214624c-0.136532,-0.070132 -0.241509,-0.033047 -0.241509,0.070143c0,0.107396 0.104977,0.21459 0.241509,0.21459zm0.276494,-3.363464c0.139952,-0.070165 0.210304,-0.17755 0.174948,-0.280739c-0.104977,-0.251675 -0.692951,-0.251675 -0.692951,0c0,0.280739 0.206143,0.387944 0.518003,0.280739zm-1.904626,-2.65378c-0.175329,0.107418 -0.280296,0.317802 -0.245321,0.425197c0.175329,0.280526 0.381853,0.210384 0.55679,-0.24767c0.171528,-0.425197 0.101546,-0.495307 -0.311469,-0.177527zm-0.662138,5.451806c0.903626,0.953349 0.938622,0.990445 0.938622,0.672666c0,-0.177337 -0.069981,-0.321818 -0.175329,-0.321818c-0.101155,0 -0.276484,-0.177561 -0.38145,-0.387911c-0.101176,-0.210607 -0.31148,-0.425231 -0.483008,-0.425231c-0.315281,0 -0.315281,0.037286 0.101165,0.462294zm-0.727937,-1.667351c0.209944,0 0.31149,-0.070109 0.174959,-0.103167c-0.104967,-0.070132 -0.276494,-0.070132 -0.381461,0c-0.105358,0.033058 0,0.103167 0.206503,0.103167zm-1.004791,-4.811997c0.104967,0.107228 0.416446,0.24748 0.69293,0.317813c0.48682,0.107194 0.521805,0.107194 0.24531,-0.177527c-0.315281,-0.350859 -1.179739,-0.458054 -0.938241,-0.140286zm-2.114952,-5.87273c-0.104967,0.103156 -0.139952,0.317779 -0.104967,0.45802c0.069981,0.284755 0.276494,0.037096 0.276494,-0.387911c0,-0.214624 -0.034996,-0.24767 -0.171528,-0.070109zm1.039787,7.643271c0.276494,0.177315 0.381842,0.177315 0.522186,-0.070333c0.276484,-0.387933 0.101155,-0.565248 -0.416838,-0.317768c-0.416828,0.173489 -0.416828,0.173489 -0.105348,0.388101zm-0.69293,-1.77054c0.521794,-0.387877 0.521794,-0.387877 0.104967,-0.387877c-0.280296,0 -0.486809,0.140218 -0.591776,0.387877c-0.06618,0.24748 -0.136532,0.387944 -0.101546,0.387944c0,0 0.276494,-0.210596 0.588355,-0.387944zm-0.763303,5.736561c0.241117,0.387944 0.657956,0.387944 0.521794,-0.037085c-0.034985,-0.140442 -0.070352,-0.317779 -0.070352,-0.355066c0,-0.033047 -0.139963,-0.033047 -0.31148,0.037286c-0.280296,0.070132 -0.280296,0.177337 -0.139963,0.354864zm-1.075154,-1.452728c0.276484,0.387933 0.416828,0.424996 0.728307,0.140274c0.206513,-0.177337 0.206513,-0.177337 0,-0.210384c-0.104967,0 -0.381461,-0.037286 -0.62296,-0.107418c-0.346846,-0.140252 -0.346846,-0.140252 -0.105348,0.177527zm-0.034985,-3.858827c0.175319,0 0.381832,-0.565438 0.276494,-0.742775c-0.136161,-0.177527 -0.416457,0.107194 -0.416457,0.424996c0,0.177538 0.069981,0.317779 0.139963,0.317779zm-1.697743,2.406088c-0.210315,0.144481 -0.175319,0.177561 0.101176,0.177561c0.175319,0 0.38145,-0.070355 0.451813,-0.177561c0.104956,-0.280683 -0.241509,-0.280683 -0.552989,0zm0.034996,3.11585c0.031184,0.037286 0.136151,-0.037085 0.241498,-0.210384c0.104956,-0.144481 0.416457,-0.322008 0.657945,-0.392151c0.31148,-0.107228 0.451824,-0.280515 0.451824,-0.532414c0,-0.598272 -0.486809,-0.420969 -1.004812,0.355077c-0.210304,0.391961 -0.38145,0.709762 -0.346455,0.779871zm-0.381832,-1.630065c0.311469,-0.387889 0.311469,-0.458244 0.066159,-0.565449c-0.276484,-0.140274 -0.482616,0.177561 -0.482616,0.742786c-0.035367,0.425197 -0.035367,0.425197 0.416457,-0.177337zm-0.55679,-4.176595c0.034985,0.284722 0.104967,0.247659 0.311469,-0.280717c0.245321,-0.565259 0.245321,-0.639631 0.034996,-0.639631c-0.136151,0 -0.276494,0.107228 -0.31148,0.284766c-0.069981,0.140241 -0.069981,0.462282 -0.034985,0.635581zm-0.171528,-2.901238c0,0.144291 0.066169,0.495139 0.136532,0.742786c0.104967,0.495329 0.104967,0.495329 0.210315,0.070132c0.136151,-0.424974 0,-1.060554 -0.210315,-1.060554c-0.101546,0 -0.136532,0.107172 -0.136532,0.247636zm-2.429851,1.167782c-0.171517,0.24767 -0.171517,0.49534 -0.035367,1.238115c0.070362,0.532403 0.245692,1.064817 0.346846,1.168006c0.175329,0.177527 0.210315,0 0.2453,-1.097673c0,-1.341305 -0.175319,-1.766468 -0.55678,-1.308448zm0.31148,3.751621c0.034996,0.070143 0.104967,-0.070132 0.069981,-0.280705c0,-0.214624 -0.034985,-0.24767 -0.104967,-0.107205c-0.031195,0.140252 -0.031195,0.317779 0.034985,0.387911zm1.250102,-3.326424c-0.034985,0.070143 -0.034985,0.565472 0.069981,1.097673c0.105348,0.920526 0.136532,0.957589 0.171528,0.284923c0.034985,-1.097863 -0.034996,-1.630255 -0.241509,-1.382596zm-1.18012,9.983299c0.210315,-0.425197 0.55679,-1.13496 0.798289,-1.560123c0.276484,-0.458087 0.451813,-1.060588 0.521794,-1.663122c0.101546,-0.953383 0.101546,-0.953383 0.101546,-0.953383c-0.416828,0.528375 -0.416828,0.528375 -0.416828,0.528375c-0.206513,0.284755 -0.346476,0.602534 -0.346476,0.709762c0,0.280694 -0.658326,2.051201 -0.864839,2.369003c-0.104967,0.177304 -0.280296,0.569488 -0.31148,0.850171c-0.175329,0.81294 0.136532,0.672666 0.517993,-0.280683zm-2.461417,3.644203c0.105348,0.70569 0.105348,0.70569 0.451824,-0.813119c0.206513,-0.817169 0.517993,-2.125371 0.728307,-2.938502c0.276484,-1.027542 0.381832,-1.877712 0.381832,-3.078731c0,-1.559967 -0.035367,-1.593013 -0.31185,-1.415452c-0.626772,0.458042 -0.973618,1.73322 -1.11358,4.209418c-0.066169,1.275424 -0.136532,2.550602 -0.206503,2.831319c-0.034996,0.284733 0,0.817147 0.069971,1.205069zm0.070362,-9.058947c0.136151,0.350848 0.276494,0.635581 0.276494,0.635581c0.034985,0 0.206121,-0.214624 0.346465,-0.495307c0.175319,-0.247469 0.451813,-0.532201 0.55679,-0.635391c0.413016,-0.322008 0.517982,-1.312453 0.171517,-1.985119c-0.276494,-0.602534 -1.039787,-1.275402 -1.180131,-1.060778c-0.069971,0.070132 -0.171136,0.742999 -0.241498,1.52287c-0.139952,1.167973 -0.139952,1.523027 0.070362,2.018143zm-0.210315,-8.105531c0.069981,0.070333 0.139952,0.033047 0.139952,-0.074148c0,-0.140465 -0.069971,-0.280739 -0.139952,-0.350859c-0.105348,-0.07436 -0.171528,-0.037085 -0.171528,0.103189c0,0.107205 0.06618,0.24767 0.171528,0.321818zm-11.23572,9.516944c0.482997,0.037275 0.482997,0.037275 0.482997,0.037275c0.486809,0 0.973618,-0.458244 0.973618,-0.850171c0,-0.24767 -0.034985,-0.24767 -1.456615,0.812896zm0.206513,-0.990456c0,0.107452 0.069981,0.214624 0.175329,0.214624c0.171147,0 0.657945,-0.635581 0.552978,-0.742775c-0.105348,-0.144481 -0.728307,0.317768 -0.728307,0.528152zm0.381832,-2.439101c0.521805,0.70588 0.763303,0.776012 1.039787,0.317768c0.280296,-0.424974 0.034996,-0.709729 -0.798659,-0.812918c-0.692941,-0.107418 -0.692941,-0.107418 -0.241128,0.49515zm-0.381832,-1.98494c0,0.074148 0.2453,0.247446 0.521794,0.391927c1.281296,0.672677 1.526596,0.672677 1.4916,0.03308c0,-0.387944 -0.521794,-1.238138 -0.728307,-1.238138c-0.2453,0 -1.285087,0.672666 -1.285087,0.813131zm1.873442,5.026609c0.381461,0 0.416446,-0.107228 0.104967,-0.280526c-0.140333,-0.037275 -0.276494,0 -0.31148,0.103189c-0.070362,0.107172 0.034985,0.177337 0.206513,0.177337zm0.276494,-8.315948c-0.241509,-0.17755 -0.55337,-0.247659 -0.693322,-0.17755c-0.241498,0.140465 -0.206513,0.17755 0.139952,0.284722c0.171528,0.070355 0.522186,0.140476 0.693322,0.173522c0.206513,0 0.206513,-0.070333 -0.139952,-0.280694zm-0.031184,1.275178c0.206121,0 0.241498,-0.037085 0.101165,-0.144291c-0.101165,-0.033024 -0.241509,-0.033024 -0.31149,0.037096c-0.034985,0.070109 0.069981,0.140274 0.210325,0.107194zm0.206121,0.813142c-0.486798,0 -0.486798,0.033013 -0.206121,0.317768c0.346465,0.317779 0.44763,0.354842 0.587974,0.140252c0.241488,-0.280526 0.069971,-0.45802 -0.381853,-0.45802zm0.693333,-3.999101c-0.140344,-0.177527 -0.175329,0.140274 -0.104977,0.528185c0.034985,0.24767 0.174948,0.46226 0.24531,0.46226c0.136151,0 0.034985,-0.780062 -0.140333,-0.990445zm1.109758,4.671711c-0.069971,0.03308 0.105348,0.24767 0.311861,0.42522c0.210315,0.177337 0.38145,0.247457 0.38145,0.140252c0,-0.247636 -0.587964,-0.709919 -0.693311,-0.565472zm-0.86827,0.24767c-0.31148,0.247692 -0.136151,0.88324 0.315292,0.990468c0.241498,0.07012 0.623341,0.354876 0.864839,0.635559c0.210315,0.284755 0.38145,0.392173 0.38145,0.284755c0,-0.354864 -1.386252,-2.055262 -1.561581,-1.910781zm1.421629,2.938535c-0.206503,-0.5697 -0.448012,-0.850227 -0.899835,-1.027754c-0.346465,-0.140252 -0.693311,-0.21459 -0.798278,-0.177315c-0.105348,0.037063 0.31148,0.495116 0.903637,1.027519c1.109758,0.920336 1.109758,0.920336 0.794477,0.17755zm1.841877,-5.451829c-0.069981,0 -0.140344,0.140274 -0.140344,0.280526c0,0.177527 0.070362,0.284755 0.140344,0.284755c0.101165,0 0.171528,-0.107228 0.171528,-0.284755c0,-0.140252 -0.070362,-0.280526 -0.171528,-0.280526zm-0.315281,2.901238c0,0.247636 0.591776,0.070132 0.833274,-0.24767c0.346476,-0.532392 0.31148,-0.672666 -0.140333,-0.672666c-0.31148,0 -0.692941,0.495351 -0.692941,0.920336zm1.008603,-7.643304c-0.105348,0.458054 -0.175329,0.845965 -0.140333,0.883251c0.105337,0.140274 0.381842,-0.920314 0.381842,-1.345511c0,-0.177337 -0.105358,0.037286 -0.241509,0.46226zm1.803091,7.147964c-0.175329,0 -0.31149,0.070355 -0.31149,0.210574c0,0.107228 0.101165,0.177561 0.206132,0.177561c0.140333,0 0.276494,-0.070333 0.311861,-0.177561c0.069981,-0.140218 -0.035367,-0.210574 -0.206503,-0.210574zm-0.416838,6.652825c0.206513,0.639821 0.517993,1.238115 0.693322,1.382596c0.175329,0.107228 0.521794,0.602557 0.728307,1.097863c0.206513,0.495139 0.416828,0.883061 0.451824,0.883061c0.171136,0 -0.175329,-3.256102 -0.416828,-4.246738c-0.210325,-0.849981 -0.276505,-1.630065 -0.241509,-2.86818c0.031184,-0.920314 0,-1.733444 -0.069971,-1.803565c-0.034996,-0.070132 -0.276494,-0.070132 -0.486809,0c-0.381842,0.140252 -0.416828,0.24767 -0.416828,1.027732c0,0.598306 -0.069992,0.920336 -0.241509,1.060554c-0.486798,0.317813 -0.451813,2.121366 0,3.466676zm-1.004791,-4.741843c-0.069981,-0.532403 -0.139952,-0.602534 -0.521794,-0.602534c-0.451824,0 -0.451824,0.037085 -0.416828,0.779871c0,0.458244 0.070352,0.990635 0.105337,1.238104c0.034996,0.24767 0.171528,0.495307 0.31149,0.532403c0.276484,0.17755 0.587964,-1.060554 0.521794,-1.947844zm-0.521794,3.57387c-0.31149,-0.425007 -0.521794,-0.883061 -0.552989,-0.990445c0,-0.140252 -0.175319,-0.495116 -0.381461,-0.812918c-0.210315,-0.317779 -0.451813,-0.70993 -0.557161,-0.850204c-0.346465,-0.495307 -0.276494,-0.070109 0.105348,1.027542c0.241498,0.742965 0.657956,1.415643 1.144754,1.981081c0.899825,0.957399 1.004802,0.779905 0.241509,-0.355055zm-0.552989,1.73746c0.37766,0 0.346476,-0.037063 -0.175319,-0.602501c-0.346476,-0.354898 -0.587974,-0.742809 -0.587974,-0.920347c0,-0.140241 -0.451824,-0.639619 -0.973607,-1.097673c-0.518003,-0.462249 -1.004812,-0.920302 -1.074783,-1.060745c-0.070362,-0.177337 -0.105348,-0.177337 -0.105348,0.033047c0,0.214624 -0.171147,0.247636 -0.728307,0.140252c-0.381461,-0.070143 -0.692941,-0.070143 -0.692941,-0.032856c0,0.070132 0.139952,0.495139 0.280296,0.920302c0.241509,0.705724 0.346465,0.850227 1.109768,1.130731c0.483008,0.177527 1.24629,0.602523 1.733099,0.920302c0.451824,0.322042 1.004802,0.569488 1.215116,0.569488zm-5.413433,1.201019c0.140333,0 0.346846,-0.070109 0.486798,-0.177494c0.241509,-0.24748 0.035377,-0.24748 -0.416446,0c-0.206513,0.107384 -0.241498,0.140431 -0.070352,0.177494zm-0.381461,-0.88324c0.346476,-0.144268 1.456615,-0.284733 2.465218,-0.284733c1.904256,-0.033047 2.286087,-0.140218 1.522784,-0.354864c-0.241488,-0.070109 -0.794477,-0.24767 -1.24629,-0.425007c-0.798289,-0.317779 -2.430233,-0.210574 -2.601379,0.144324c-0.035367,0.070299 -0.210315,0.107384 -0.381832,0.070299c-0.346476,-0.107396 -0.693322,0.177359 -0.798289,0.742809c-0.140333,0.45802 0.104967,0.495307 1.039787,0.107172zm-2.772896,0.813131c0.069981,0.284755 0.416828,0.317779 0.693322,0.070109c0.171136,-0.140241 0.171136,-0.21035 0,-0.424974c-0.140333,-0.210607 -0.241498,-0.210607 -0.451813,-0.033047c-0.140333,0.103189 -0.241509,0.280526 -0.241509,0.387911zm-1.109768,2.476231c0.136161,0 0.206143,0.107228 0.136161,0.317802c-0.031195,0.144481 -0.136161,0.284733 -0.206513,0.284733c-0.104967,0 -0.171147,-0.140252 -0.171147,-0.284733c0,-0.173299 0.101165,-0.317802 0.241498,-0.317802z" fill-opacity="null" stroke-opacity="null" fill="#ff7c00"/>
  <text font-style="normal" font-weight="bold" xml:space="preserve" text-anchor="start" font-family="Helvetica, Arial, sans-serif" font-size="30" id="svg_16" y="28.5" x="116" fill-opacity="null" stroke-opacity="null" stroke-width="0" stroke="#000" fill="#4a4a4a">bil</text>
  <text xml:space="preserve" text-anchor="start" font-family="Helvetica, Arial, sans-serif" font-size="30" id="svg_17" y="28.5" x="50" fill-opacity="null" stroke-opacity="null" stroke-width="0" stroke="#000" fill="#4a4a4a">uyan</text>
 </g>
</svg>